<svg width="1173" height="249" viewBox="0 0 1173 249" fill="none" xmlns="http://www.w3.org/2000/svg"><path d="M418.741 197.627c10.093-1.27 21.166-3.445 32.342-6.281 4.293-4.456-1.187-9.06-6.427-8.274-12.111-.786-27.636 10.263-25.915 14.555z" fill="#FF6200"/><path d="M433.091 167.709c-7.851-3.836-63.558-4.757-67.581 7.72 4.62 9.893 9.856 17.414 17.063 20.55 7.691 3.344 20.783 3.558 36.158 1.65 8.579-4.575 17.388-9.487 25.915-14.556 3.424-7.231-3.882-13.676-11.555-15.364z" fill="#FF8000"/><path d="M436.169 51.209c-35.413 3.427-70.569 12.515-79.636 25.19-11.029 15.42-6.959 59.972 5.676 91.378a153.77 153.77 0 003.303 7.654c23.467-1.829 47.217-4.475 67.581-7.72-18.231-24.903-24.477-39.403-30.685-54.477-9.695-23.572-15.524-53.402 33.761-62.025z" fill="#B3FA1B"/><path d="M527.262 76.297a101.95 101.95 0 00-.563-1.238c-2.95-7.067-7.424-14.713-13.374-17.979-2.654-1.458-6.011-2.69-9.924-3.702-5.104 6.453-2.364 17.502 2.982 22.408 6.526 2.46 13.832 3.38 20.879.51z" fill="#BF0474"/><path d="M481.86 74.563c.4.701 1.826.92 3.478 1.477 5.654 3.126 18.439 2.206 21.058-.254-.696-6.966-1.691-14.436-2.983-22.408-9.175-2.374-21.426-3.558-34.981-3.665-1.184 9.197 8.609 16.523 13.428 24.85z" fill="#8529FE"/><path d="M437.141 81.72c10.946-2.704 26.397-4.927 48.197-5.68-.399-.732-.798-1.448-1.199-2.15a279.878 279.878 0 00-15.708-24.176 311.334 311.334 0 00-32.254 1.491c-54.727 7.004-44.384 39.272-34.682 62.841 6.208 15.074 13.374 28.759 31.606 53.662h.02c-19.059-26.558-37.77-75.671 4.02-85.988z" fill="#84D600"/><path d="M492.225 148.061l-.063.073c-10.538 11.258-47.505 32.54-47.505 34.939 2.018 2.63 4.037 5.189 6.427 8.274 36.488-9.26 74.087-25.447 82.076-38.982 6.561-11.115 4.335-52.955-5.897-76.067a635.675 635.675 0 00-20.866-.508c.12 26.395-.757 58.266-14.172 72.271z" fill="#E22B1A"/><path d="M444.657 183.072c19.16-11.399 36.967-23.681 47.505-34.938l.063-.074a45.909 45.909 0 01-5.413 4.828c-7.388 5.606-27.8 10.696-53.69 14.82.234.327.469.652.704.974" fill="#C20419"/><path d="M492.224 148.06c13.415-14.004 17.727-36.697 14.172-72.273a498.712 498.712 0 00-21.058.254c11.63 21.422 21.454 56.32 6.886 72.019z" fill="#B820FF"/><path d="M107.375 99.106c-5.676-3.37-12.224-5.07-19.453-5.07-7.656 0-14.677 1.85-20.856 5.487-6.164 3.638-11.13 8.677-14.737 14.954-3.607 6.276-5.44 13.432-5.44 21.274 0 7.842 1.863 15.177 5.529 21.454 3.665 6.276 8.706 11.301 14.988 14.953 6.282 3.638 13.51 5.487 21.507 5.487 6.223 0 12.135-1.193 17.575-3.549a38.858 38.858 0 0014.072-10.316l.325-.373-10.332-10.6-.37.432a24.594 24.594 0 01-9.312 6.858c-3.607 1.521-7.627 2.296-11.943 2.296-5.174 0-9.815-1.133-13.806-3.354-3.962-2.207-7.066-5.397-9.209-9.452-1.212-2.311-2.099-4.876-2.631-7.649h61.298l.089-.417c.325-1.565.562-3.012.665-4.324.118-1.297.163-2.519.163-3.622 0-7.619-1.611-14.492-4.775-20.425-3.178-5.949-7.671-10.675-13.347-14.044zm-44.063 29.28c.517-2.579 1.33-4.949 2.438-7.051 2.04-3.892 4.967-6.963 8.721-9.124 3.755-2.162 8.174-3.265 13.126-3.265s8.81 1.013 12.136 3.011c3.311 1.998 5.912 4.845 7.73 8.453 1.139 2.251 1.922 4.935 2.351 7.991l-46.502-.015zm226.79-32.68v9.87c-2.631-3.205-5.779-5.8-9.401-7.722-4.745-2.535-10.199-3.817-16.2-3.817-7.347 0-14.028 1.878-19.866 5.59-5.839 3.698-10.51 8.752-13.91 15.043-3.385 6.277-5.114 13.433-5.114 21.26 0 7.827 1.715 14.998 5.114 21.275 3.385 6.276 8.071 11.316 13.91 14.953 5.838 3.653 12.534 5.502 19.866 5.502 6.001 0 11.485-1.283 16.289-3.817a29.904 29.904 0 009.312-7.648v9.795h16.097V95.707h-16.097zm.99 40.224c0 7.723-2.232 14.134-6.636 19.068-4.39 4.92-10.273 7.41-17.472 7.41-4.848 0-9.194-1.148-12.963-3.429-3.755-2.266-6.726-5.427-8.825-9.378-2.099-3.965-3.163-8.617-3.163-13.835s1.064-9.705 3.163-13.671c2.099-3.951 5.041-7.111 8.736-9.392 3.695-2.267 8.026-3.429 12.875-3.429 4.848 0 9.105 1.118 12.712 3.339 3.591 2.221 6.444 5.367 8.484 9.378 2.055 4.025 3.089 8.706 3.089 13.939zm-119.95-41.893c-8.84 0-15.713 3.1-20.428 9.213-.133.164-.252.343-.385.507v-8.05h-15.934v80.283h15.934v-45.561c0-7.156 1.73-12.538 5.144-15.967 3.415-3.429 7.849-5.188 13.185-5.188 2.454 0 4.656.357 6.548 1.058l.71.268V94.425l-.458-.06c-1.582-.224-2.957-.328-4.316-.328zm56.139 16.563V94.425l-.458-.06c-1.582-.224-2.956-.328-4.316-.328-8.839 0-15.713 3.1-20.428 9.213-.133.164-.251.343-.384.507v-8.05H185.76v80.283h15.935v-45.561c0-7.156 1.729-12.538 5.144-15.967 3.414-3.429 7.849-5.188 13.185-5.188 2.453 0 4.656.357 6.548 1.058l.709.268zM17.815 130.697v-18.144h17.471v-16.95H17.814V68.497H.358v62.199c0 14.268 3.68 26.195 10.642 34.499 6.74 8.036 16.408 12.464 27.213 12.464v-17.608c-12.771 0-20.399-10.972-20.399-29.355z" fill="#fff"/><path fill-rule="evenodd" clip-rule="evenodd" d="M586.635 198.836V49.709h6.214v149.127h-6.214z" fill="#fff"/><path d="M989.357 199.29c-3.922 0-7.517-1.101-10.745-3.303-3.227-2.203-5.821-5.2-7.762-8.993-1.94-3.792-2.9-8.074-2.9-12.846 0-4.771.98-9.135 2.941-12.887 1.961-3.772 4.617-6.708 7.987-8.85 3.35-2.141 7.108-3.221 11.296-3.221 2.471 0 4.739.367 6.802 1.101 2.063.734 3.864 1.753 5.394 3.079 1.53 1.325 2.82 2.834 3.8 4.547a14.767 14.767 0 011.86 5.505l-2.09-.734v-12.479h9.44v48.163h-9.44v-11.459l2.19-.653c-.37 1.652-1.1 3.263-2.23 4.812-1.12 1.55-2.53 2.957-4.27 4.181-1.713 1.223-3.633 2.202-5.716 2.936-2.084.734-4.27 1.101-6.578 1.101h.021zm2.451-8.707c2.839 0 5.352-.693 7.517-2.121 2.185-1.407 3.885-3.344 5.125-5.831 1.25-2.488 1.86-5.302 1.86-8.483 0-3.181-.61-5.893-1.86-8.34-1.24-2.447-2.94-4.363-5.125-5.77-2.186-1.407-4.678-2.121-7.517-2.121-2.839 0-5.25.693-7.395 2.121-2.144 1.407-3.84 3.323-5.086 5.77-1.246 2.447-1.859 5.22-1.859 8.34s.613 6.015 1.859 8.483c1.246 2.467 2.942 4.424 5.086 5.831 2.145 1.407 4.617 2.121 7.395 2.121zM1028.58 198.373V150.21h9.34v9.91l-1.64 1.101c.61-2.141 1.78-4.119 3.54-5.913 1.75-1.795 3.84-3.263 6.25-4.405 2.41-1.142 4.9-1.692 7.43-1.692 3.64 0 6.64.713 9.07 2.161 2.41 1.448 4.23 3.63 5.43 6.566 1.21 2.936 1.82 6.627 1.82 11.093v29.362h-9.33v-28.71c0-2.753-.37-5.036-1.09-6.831-.71-1.794-1.83-3.12-3.35-3.935-1.51-.836-3.39-1.183-5.61-1.061-1.82 0-3.47.286-4.99.877-1.51.592-2.82 1.387-3.94 2.427s-2 2.243-2.63 3.629c-.64 1.366-.96 2.855-.96 4.445v29.18h-9.34v-.041zM1104.98 199.291c-4.66 0-8.8-1.081-12.46-3.263-3.66-2.161-6.54-5.138-8.66-8.911-2.12-3.751-3.17-8.054-3.17-12.887 0-4.832 1.07-9.135 3.17-12.887 2.12-3.772 5-6.728 8.66-8.91 3.66-2.162 7.82-3.263 12.46-3.263 4.64 0 8.72 1.081 12.38 3.263s6.54 5.138 8.66 8.91c2.12 3.752 3.17 8.055 3.17 12.887 0 4.833-1.07 9.136-3.17 12.887-2.12 3.752-5 6.729-8.66 8.911-3.66 2.182-7.78 3.263-12.38 3.263zm0-8.626c2.84 0 5.37-.713 7.62-2.161 2.23-1.427 3.98-3.405 5.25-5.873 1.27-2.467 1.88-5.281 1.82-8.401.06-3.181-.55-6.015-1.82-8.482-1.27-2.488-3.02-4.425-5.25-5.832-2.25-1.407-4.78-2.1-7.62-2.1s-5.39.714-7.66 2.161c-2.27 1.448-4.04 3.385-5.31 5.873-1.27 2.467-1.88 5.281-1.82 8.401-.06 3.12.55 5.913 1.82 8.401 1.27 2.487 3.04 4.445 5.31 5.872 2.27 1.448 4.82 2.162 7.66 2.162v-.021zM1155.8 199.289c-3.98 0-7.58-.713-10.78-2.12-3.21-1.407-5.87-3.487-7.99-6.24l6.35-5.505c1.82 2.141 3.8 3.69 5.95 4.628 2.14.938 4.57 1.428 7.29 1.428 1.08 0 2.1-.143 3.04-.408.94-.286 1.76-.693 2.45-1.244a5.502 5.502 0 001.6-1.978c.36-.775.55-1.611.55-2.528 0-1.591-.57-2.875-1.72-3.854-.61-.428-1.55-.897-2.86-1.428-1.31-.509-2.98-1.06-5.02-1.61-3.52-.918-6.38-1.958-8.62-3.12-2.25-1.163-3.97-2.468-5.17-3.956a11.975 11.975 0 01-2-3.813c-.43-1.366-.64-2.896-.64-4.547 0-2.019.43-3.875 1.31-5.547.88-1.672 2.08-3.14 3.64-4.404 1.55-1.264 3.35-2.223 5.43-2.896 2.08-.672 4.31-1.019 6.66-1.019 2.23 0 4.45.306 6.66.918a24.31 24.31 0 016.13 2.65c1.88 1.163 3.45 2.549 4.71 4.14l-5.35 5.954a23.35 23.35 0 00-3.76-3.079c-1.36-.877-2.73-1.57-4.12-2.06-1.39-.489-2.66-.734-3.82-.734-1.27 0-2.41.123-3.45.367-1.02.245-1.9.612-2.6 1.101a4.963 4.963 0 00-1.59 1.836c-.37.734-.55 1.549-.55 2.467.06.795.24 1.55.59 2.243.35.693.8 1.305 1.41 1.794.67.49 1.65 1.02 2.98 1.57 1.33.551 3.02 1.081 5.09 1.55 3.02.795 5.51 1.672 7.47 2.61 1.97.958 3.52 2.039 4.68 3.263 1.21 1.162 2.06 2.508 2.53 4.037.49 1.529.72 3.242.72 5.138 0 2.753-.78 5.22-2.31 7.382-1.53 2.182-3.61 3.874-6.21 5.098-2.59 1.223-5.49 1.835-8.7 1.835l.02.081zM826.573 217.691a428.741 428.741 0 0011.706-6.602 561.708 561.708 0 002.833 3.624c-5.067 1.244-9.935 2.243-14.539 2.987v-.009zM809.772 219.243c-5.158 0-9.181-.608-11.951-1.798-3.769-1.625-7.029-5.385-10.207-11.787 15.493-1.235 30.259-2.915 42.836-4.886a511.328 511.328 0 006.657 8.791 427.646 427.646 0 01-16.029 8.908c-4.159.509-7.964.772-11.306.772zM786.734 203.805a103.398 103.398 0 01-1.889-4.386c-8.754-21.605-10.598-49.784-3.869-59.129 4.114-5.712 17.554-10.843 35.862-14.012-4.894 2.179-8.373 5.104-10.516 8.791-4.922 8.482-1.589 19.316 2.752 29.768 4.059 9.781 8.691 18.599 20.097 34.2-12.505 1.926-27.126 3.569-42.437 4.768zM891.686 138.665a424.92 424.92 0 00-11.452-.272 241.028 241.028 0 00-1.662-12.469c1.944.572 3.606 1.235 4.931 1.962 3.733 2.034 6.475 6.865 8.174 10.779h.009zM865.996 138.529c-.173-.309-.345-.617-.518-.917-2.679-4.641-5.812-9.481-9.335-14.43 8.127.163 15.138.917 20.423 2.197.736 4.605 1.326 8.964 1.753 12.996h-1.934c-3.587 0-7.084.054-10.398.163l.009-.009z" fill="#fff"/><path d="M820.18 182.428c-4.25-6.911-6.902-12.441-9.336-18.317-7.02-16.918-5.521-23.493-2.861-28.079 3.624-6.239 12.051-10.244 25.047-11.897 6.765-.654 13.413-.98 19.733-.98h1.008c3.824 5.294 7.202 10.47 10.053 15.411 0 .009.019.027.028.036-12.242.49-22.504 1.734-30.523 3.705-8.191 2.007-13.567 6.339-15.965 12.868-2.788 7.592-1.089 17.582 2.825 27.253h-.009zM839.941 210.099c14.258-8.491 24.593-16.083 30.713-22.576l.046-.055c8.927-9.262 11.951-23.838 9.735-47.177 3.887.045 7.955.145 12.124.3 6.52 15.175 7.81 41.683 3.714 48.567-4.677 7.873-26.963 18.362-53.126 25.028 0 0-2.57-3.288-3.206-4.096v.009z" fill="#fff"/><path d="M832.594 200.427c9.517-1.544 20.633-3.76 28.079-6.521-5.721 4.496-13.041 9.399-21.904 14.667l-6.175-8.146zM875.404 176.862c1.689-11.434-3.188-26.4-8.4-36.453a312.24 312.24 0 019.381-.127h2.125c1.553 16.11.59 27.907-3.106 36.57v.01z" fill="#fff"/><path d="M920.702 132.027c-17.636-32.838-59.973-44.844-94.137-31.231l3.233-21.723h87.935v-54.67H786.526l-.127.882c.435.6.89 1.19 1.316 1.798 6.966 10.235 10.498 22.34 10.498 35.98 0 4.35-.49 8.954-1.462 13.695-.962 4.713-2.479 9.708-4.513 14.848-1.862 4.704-4.35 9.78-7.374 15.102-.264.454-.518.908-.781 1.371-3.042 5.222-6.72 10.771-10.961 16.51-.464.636-.936 1.262-1.417 1.898-4.831 6.402-10.562 13.25-17.037 20.36l-13.667 14.876h30.958c-.227-10.072 1.281-18.944 5.104-24.248 9.29-12.868 44.371-17.236 55.214-18.289l.218-.018c7.129-.7 14.358-1.018 21.514-.99 9.554.072 17.845.944 23.993 2.524l3.75.963v.182c1.426.517 2.716 1.08 3.851 1.698 3.823 2.079 7.156 6.048 9.908 11.796h.018l.327.727c.136.3.272.599.408.908l.6 1.326c7.11 15.938 9.018 44.544 3.569 53.689-2.407 4.032-7.356 8.028-15.157 12.223-10.68 5.749-25.755 11.297-41.356 15.22-7.338 1.844-14.34 3.215-20.815 4.06h-.009l-.853.109h-.055l-1.68.209h-.018c-3.733.399-7.147.599-10.235.599-5.93 0-10.67-.754-14.149-2.252-6.947-2.997-10.943-9.981-13.649-15.72a108.29 108.29 0 01-2.261-5.185c-4.096-10.099-6.984-22.395-7.919-33.801h-42.074v-2.488l20.224-22.013c6.357-6.966 11.97-13.677 16.692-19.934a207.848 207.848 0 006.811-9.563 159.405 159.405 0 005.185-8.273c3.242-5.576 5.858-10.861 7.783-15.701 1.907-4.822 3.333-9.5 4.232-13.886.89-4.368 1.344-8.582 1.344-12.541 0-10.907-2.443-20.705-7.283-29.187a55.285 55.285 0 00-2.216-3.56c-6.357-9.336-14.921-16.737-25.464-22.004C746.904 3.008 735.025.22 722.203.01c-11.997-.208-23.575 2.434-34.455 7.829-10.97 5.43-20.823 12.94-29.287 22.312a105.11 105.11 0 00-18.78 29.36l44.28 22.567c3.315-5.512 6.457-10.053 9.363-13.522 3.451-4.123 7.011-7.147 10.571-8.99 3.623-1.871 7.701-2.825 12.096-2.825 4.877 0 8.736.772 11.788 2.353 3.051 1.589 5.367 3.614 6.883 6.011 1.544 2.443 2.316 5.004 2.316 7.629 0 4.195-1.426 9.054-4.232 14.448-2.679 5.131-6.184 10.534-10.425 16.047a391.029 391.029 0 01-12.905 15.892c-4.395 5.122-8.527 9.735-12.278 13.695l-60.263 64.259 9.172 22.131h122.725l6.366 5.749c68.046 56.349 191.37 6.348 145.564-92.929z" fill="#fff"/></svg>